[B]Mere Hindustan Ki Kasam (2011) HDrip Hindi Dubbed[/B]
 
http://www.shotpix.com/images/07747716086166187566.png



[B]INFO[/B]

[code]Format : Matroska
Format version : Version 2
File size : 837 MiB
Duration : 1h 55mn
Overall bit rate : 1 011 Kbps
Encoded date : UTC 2012-04-23 23:58:41
Writing application : mkvmerge v5.4.0 ('Piper') built on Mar 10 2012 13:34:39
Writing library : libebml v1.2.3 + libmatroska v1.3.0

Video
ID : 1
Format : MPEG-4 Visual
Format profile : Advanced Simple@L5
Format settings, BVOP : Yes
Format settings, QPel : No
Format settings, GMC : No warppoints
Format settings, Matrix : Default (H.263)
Codec ID : XVID
Codec ID/Hint : XviD
Duration : 1h 55mn
Bit rate : 863 Kbps
Width : 624 pixels
Height : 272 pixels
Display aspect ratio : 2.25:1
Frame rate : 25.000 fps
Color space : YUV
Chroma subsampling : 4:2:0
Bit depth : 8 bits
Scan type : Progressive
Compression mode : Lossy
Bits/(Pixel*Frame) : 0.203
Stream size : 714 MiB (85%)
Title : Mere Hindustan Ki Kasam 2011 Hindi Dubbed (Abdullah) TDT
Writing library : XviD 1.2.1 (UTC 2008-12-04)
Language : Hindi
Default : Yes
Forced : No

Audio
ID : 2
Format : MPEG Audio
Format version : Version 1
Format profile : Layer 2
Muxing mode : Header stripping
Codec ID : A_MPEG/L2
Codec ID/Hint : MP2
Duration : 1h 55mn
Bit rate mode : Constant
Bit rate : 128 Kbps
Channel(s) : 2 channels
Sampling rate : 48.0 KHz
Compression mode : Lossy
Stream size : 106 MiB (13%)
Title : (Abdullah) TDT
Language : Hindi
Default : Yes
Forced : No[/code]


[B]SCREEN SHOTS[/B]
 
http://www.shotpix.com/images/04587828000376824820.png
 
http://www.shotpix.com/images/01246025790419178107.png
 
http://www.shotpix.com/images/75506851180557981783.png
 
http://www.shotpix.com/images/06758486393568278715.png
 
http://www.shotpix.com/images/53265330040934104184.png
 
http://www.shotpix.com/images/79298815830901165646.png
 
http://www.shotpix.com/images/76892402700185824379.png
 
http://www.shotpix.com/images/25894360642273086607.png
 
http://www.shotpix.com/images/80347380813254042044.png



*** PLEASE SEED AFTER DOWNLOAD ***

** DO LIKE A COMMENT IF YA LIKE THIS SHARE **